<svg id="comet4" xmlns="http://www.w3.org/2000/svg" xmlns:xlink="http://www.w3.org/1999/xlink" width="165.986" height="147.397" viewBox="0 0 165.986 147.397">
  <defs>
    <linearGradient id="linear-gradient" x1="-0.049" y1="0.971" x2="1.104" y2="0.091" gradientUnits="objectBoundingBox">
      <stop offset="0.01" stop-color="#f4447a"/>
      <stop offset="0.14" stop-color="#f04379"/>
      <stop offset="0.27" stop-color="#e44074"/>
      <stop offset="0.4" stop-color="#d03b6d"/>
      <stop offset="0.54" stop-color="#b33363"/>
      <stop offset="0.67" stop-color="#8f2a56"/>
      <stop offset="0.81" stop-color="#621e46"/>
      <stop offset="0.94" stop-color="#2f1133"/>
      <stop offset="1" stop-color="#140a2a"/>
    </linearGradient>
    <linearGradient id="linear-gradient-2" x1="-0.111" y1="1.021" x2="1.073" y2="0.028" xlink:href="#linear-gradient"/>
    <linearGradient id="linear-gradient-3" x1="-0.133" y1="0.977" x2="1.104" y2="0.071" xlink:href="#linear-gradient"/>
  </defs>
  <g id="Layer_2" data-name="Layer 2" transform="translate(0 0)">
    <g id="Ñëîé_1" data-name="Ñëîé 1">
      <g id="Group_36" data-name="Group 36" transform="translate(6.267)">
        <g id="Group_35" data-name="Group 35">
          <path id="Path_344" data-name="Path 344" d="M8.79,115.189,165.37.4a1.947,1.947,0,0,1,2.539,2.945L33.113,139.12Z" transform="translate(-8.79 0.012)" opacity="0.68" fill="url(#linear-gradient)"/>
        </g>
      </g>
      <g id="Group_37" data-name="Group 37" transform="translate(29.314 47.5)">
        <path id="Path_345" data-name="Path 345" d="M41.11,124.246,115.656,66.6,42.65,125.765Z" transform="translate(-41.11 -66.6)" opacity="0.68" fill="url(#linear-gradient-2)"/>
      </g>
      <g id="Group_38" data-name="Group 38" transform="translate(52.725 21.893)">
        <path id="Path_346" data-name="Path 346" d="M73.94,113.052,168.189,30.69,77.356,116.2Z" transform="translate(-73.94 -30.69)" opacity="0.68" fill="url(#linear-gradient-3)"/>
      </g>
      <path id="Path_347" data-name="Path 347" d="M9.22,163.8c-2.852,3.337-5.248,9.056.235,8.814,2.624,0,5.7-4.279,8.343-7.131-2.617-1.9-.948-5.241.956-4.992,4.771,1.191,8.821,4.279,12.4-.235,0,1.426,2.139,2.624,1.9,2.852-6.418,6.667-15.738,10.482-20.744,18.583.713.235,1.191,1.426,1.669.948,4.279-3.565,7.63-7.38,11.688-10.953,1.191-.956,2.382.948,3.815,1.191-.242-.713.478-.478.713-.478-.956,2.852-3.1,6.91,1.669,7.131A99.058,99.058,0,0,1,40.9,166.275a8.029,8.029,0,0,0-.877-2.41c-1.519-3.081-3.858-6.653-7.273-6.346-1.99.171-4.072,1.676-5.776.656-1.219-.713-1.547-2.446-2.745-3.209s-2.531-.357-3.779,0c-5.255,1.5-10.383,2.61-14.362,6.1A30.52,30.52,0,0,0,9.22,163.8Z" transform="translate(-1.748 -44.329)" fill="#f4447a"/>
      <path id="Path_348" data-name="Path 348" d="M30.121,181.825c-4.771-.235-2.624-4.279-1.669-7.131-.235,0-.956-.242-.713.478-1.426-.242-2.624-2.139-3.815-1.191-4.057,3.565-7.395,7.38-11.688,10.953-.478.478-.948-.713-1.669-.948,4.992-8.1,14.312-11.916,20.744-18.583.242-.235-1.9-1.426-1.9-2.852-3.565,4.528-7.63,1.426-12.4.235-1.9-.235-3.565,3.1-.956,4.992-2.617,2.852-5.7,7.131-8.343,7.131-5.484.242-3.1-5.477-.235-8.814a30.519,30.519,0,0,1-3.13-2.7,16.864,16.864,0,0,0-2.531,2.8C.136,168.511-.634,171.7.628,174.28c.521,1.055,1.383,2.075,1.255,3.245a5.27,5.27,0,0,1-.67,1.683,11.409,11.409,0,0,0,4.05,14.383,2.546,2.546,0,0,0,1.148.435,2.938,2.938,0,0,0,1.562-.521l9.983-5.7a9.271,9.271,0,0,1,2.852-1.219c2.41-.428,4.885,1.105,7.274.563s3.929-3.059,5.077-5.32l5.234-10.311a6.139,6.139,0,0,0,.777-2.139,3.6,3.6,0,0,0,0-.713A92.3,92.3,0,0,0,30.121,181.825Z" transform="translate(-0.001 -46.629)" fill="#c62954"/>
      <path id="Path_349" data-name="Path 349" d="M40.369,147.884l.663,1.063a.264.264,0,0,0,.285.107l1.105-.328a.25.25,0,0,0,.185-.228v-.62a.257.257,0,0,0-.086-.207l-.271-.242a.235.235,0,0,1-.078-.257l.043-.15a.25.25,0,0,0-.185-.314l-.292-.071a.228.228,0,0,0-.214.043l-1.134.87a.257.257,0,0,0-.021.335Z" transform="translate(-11.568 -42.06)" fill="#f4447a"/>
      <path id="Path_350" data-name="Path 350" d="M76.761,148.7l1.426-3.116c.128-.285.071-.542-.15-.635l-2.2-.963a.713.713,0,0,0-.713.193L73.7,145.394a.934.934,0,0,0-.328.535l-.193.913a1.027,1.027,0,0,1-.456.635l-.4.25a.827.827,0,0,0-.442.9l.242.585a.371.371,0,0,0,.385.214l3.444-.121A1.006,1.006,0,0,0,76.761,148.7Z" transform="translate(-20.62 -41.295)" fill="#f4447a"/>
    </g>
  </g>
</svg>
