<svg id="Layer_2" data-name="Layer 2" xmlns="http://www.w3.org/2000/svg" xmlns:xlink="http://www.w3.org/1999/xlink" width="168.53" height="134.247" viewBox="0 0 168.53 134.247">
  <defs>
    <linearGradient id="linear-gradient" x1="-0.273" y1="1.242" x2="0.885" y2="0.078" gradientUnits="objectBoundingBox">
      <stop offset="0" stop-color="#f81f95"/>
      <stop offset="0.01" stop-color="#f81f95"/>
      <stop offset="0.16" stop-color="#ec3ca3"/>
      <stop offset="0.49" stop-color="#ce86c6"/>
      <stop offset="0.98" stop-color="#9efafd" stop-opacity="0.22"/>
      <stop offset="1" stop-color="#9cffff" stop-opacity="0.169"/>
    </linearGradient>
    <linearGradient id="linear-gradient-2" x1="0.122" y1="1.314" x2="1.207" y2="0.425" gradientUnits="objectBoundingBox">
      <stop offset="0.01" stop-color="#f81f95"/>
      <stop offset="0.16" stop-color="#ec3ca3"/>
      <stop offset="0.49" stop-color="#ce86c6"/>
      <stop offset="0.98" stop-color="#9efafd"/>
      <stop offset="1" stop-color="#9cffff"/>
    </linearGradient>
  </defs>
  <g id="Ñëîé_1" data-name="Ñëîé 1" transform="translate(0 0)">
    <g id="Group_45" data-name="Group 45" transform="translate(5.623)" style="mix-blend-mode: lighten;isolation: isolate">
      <g id="Group_44" data-name="Group 44">
        <g id="Group_43" data-name="Group 43">
          <path id="Path_360" data-name="Path 360" d="M169.036,3.049a9.15,9.15,0,0,0-12.69-.922L73.484,71.662a1.912,1.912,0,0,1-2.728-.3h0a1.869,1.869,0,0,1,.266-2.572l49.416-42.056a5.825,5.825,0,0,0,.621-8.29,6.005,6.005,0,0,0-8.4-.613L10.417,104.595c-2.3,1.966-2.728,7.083-1.03,9.507,3.478,3.138,3.409,7.79,6.348,11.386l5.455-4.639a5.683,5.683,0,0,0,1.166,2.087l4.385,5a6.026,6.026,0,0,0,8.394.613L168.1,15.688a8.851,8.851,0,0,0,.934-12.638Z" transform="translate(-8.352 0.003)" opacity="0.2" fill="url(#linear-gradient)"/>
        </g>
      </g>
    </g>
    <g id="Group_48" data-name="Group 48" transform="translate(12.78 36.439)">
      <g id="Group_47" data-name="Group 47">
        <g id="Group_46" data-name="Group 46">
          <path id="Path_361" data-name="Path 361" d="M21.485,109.614l-1.959-2.283a2.276,2.276,0,0,1,.249-3.205l57.7-49.47a2.283,2.283,0,0,1,3.205.249l1.959,2.276a2.276,2.276,0,0,1-.242,3.205l-57.7,49.47a2.283,2.283,0,0,1-3.205-.242Z" transform="translate(-18.981 -54.115)" opacity="0.2" fill="url(#linear-gradient-2)"/>
        </g>
      </g>
    </g>
    <path id="Path_362" data-name="Path 362" d="M19.908,134.347c.094.29.774,0,.869-.485-.579,0-.579-1.064-.189-1.259.579-.391,1.454-.29,1.939-.673.29-.2,0-.875-.2-.97-.774-.29-1.65-1.064-1.555-1.65.3-1.158,3.495-2.693,1.461-3.488-.391-.094-.586,1.165-.97,1.064a1.885,1.885,0,0,1-1.387-1.347l-3.69,2.848a1.124,1.124,0,0,0-.276,1.5l2.336,3.73C18.932,133.452,19.518,133.33,19.908,134.347Z" transform="translate(-5.142 -41.008)" fill="#8d40a7"/>
    <path id="Path_363" data-name="Path 363" d="M26.86,128.324l-1.219-1.05a1.111,1.111,0,0,1-.337-1.138l.2-.673a1.118,1.118,0,0,0-.815-1.387l-1.347-.323a1.091,1.091,0,0,0-.949.2l-1.347,1.03a1.885,1.885,0,0,0,1.387,1.347c.384.1.579-1.158.97-1.064,2.02.774-1.165,2.33-1.461,3.488-.094.586.781,1.347,1.555,1.65.2.094.485.774.2.97-.485.391-1.347.29-1.939.673-.391.2-.391,1.259.189,1.259-.094.485-.774.774-.869.485-.391-1.017-.976-.9-1.65-.761l.66.983a1.118,1.118,0,0,0,1.266.478l4.922-1.448a1.124,1.124,0,0,0,.808-1l.141-2.808a1.1,1.1,0,0,0-.357-.9Z" transform="translate(-6.344 -40.412)" fill="#551c81"/>
    <path id="Path_364" data-name="Path 364" d="M60.582,174.205c.572-.189.835-.72,1.347-1.023-.343-.451.04-.606.074-1.017.04-.269-.263-.532-.525-.72-.04,0-.081.114-.155.074a.31.31,0,0,1-.074-.3c.229-.263.828-.222.72-.673-.3.1-.478,0-.545-.242l-.768.094a.6.6,0,0,0-.525.559v.316a.6.6,0,0,1-.316.492l-.276.155a.6.6,0,0,0-.215.855l.916,1.347C60.339,174.03,60.494,173.97,60.582,174.205Z" transform="translate(-18.849 -55.629)" fill="#8d40a7"/>
    <path id="Path_365" data-name="Path 365" d="M63.821,171.719l-1.165-1.286a.586.586,0,0,0-.518-.2h-.269c.067.242.249.343.545.242.108.458-.492.417-.72.673a.31.31,0,0,0,.074.3c.074.04.114-.074.155-.074.263.189.566.451.525.72,0,.411-.417.566-.074,1.017-.492.3-.754.835-1.347,1.023-.088-.236-.242-.175-.377-.081l.141.215a.6.6,0,0,0,.9.108l2.06-1.858A.6.6,0,0,0,63.821,171.719Z" transform="translate(-19.301 -55.607)" fill="#551c81"/>
    <path id="Path_366" data-name="Path 366" d="M17.614,175.73c-.821-1.636-3.548,1.091-4.37.269-1.636-1.347-2.734-3.542-3.825-5.454-.545-1.091,1.643-1.906,1.643-2.182-1.1-4.363.815-6.269,4.094-6.545,3-.276,5.73,5.185,8.464,4.639,3-.545,6.821-6.821,1.906-7.912-1.347-.276-3.272-.545-2.693-1.347,1.636-3.818,5.73-6.814,8.753-10.1-3.192-2.02-1.811-3.912.162-5.737a2.3,2.3,0,0,0-2.276.175l-9.211,6.242a2.289,2.289,0,0,1-1.461.4l-4.5-.316a2.27,2.27,0,0,0-1.172.222l-5.461,2.646a2.343,2.343,0,0,0-.976.889L5.07,154.311a2.289,2.289,0,0,1-.949.875,2.3,2.3,0,0,0-1.205,1.495l-.774,3.03a2.29,2.29,0,0,1-.673,1.145l-.673.619A2.309,2.309,0,0,0,0,163.192l.081,8.019A2.249,2.249,0,0,0,.424,172.4l2.269,3.663a2.289,2.289,0,0,0,1.495,1.05l12.564,2.619C17.587,178.336,18.429,177.029,17.614,175.73Z" transform="translate(0 -46.104)" fill="#8d40a7"/>
    <path id="Path_367" data-name="Path 367" d="M41.313,150.684a2.289,2.289,0,0,0-.182-2.121l-3.966-6.235a2.256,2.256,0,0,0-.97-.848c-1.973,1.825-3.367,3.683-.162,5.737-3,3.272-7.1,6.269-8.753,10.1-.545.821,1.347,1.091,2.693,1.347,4.915,1.091,1.1,7.366-1.906,7.912-2.734.545-5.461-4.915-8.464-4.639-3.279.276-5.191,2.182-4.094,6.545,0,.276-2.188,1.091-1.643,2.182,1.091,1.912,2.188,4.094,3.825,5.454.821.821,3.548-1.906,4.37-.269.815,1.3,0,2.606-.9,3.966l2.9.6a2.3,2.3,0,0,0,2.343-.909l1.461-2.02a2.316,2.316,0,0,1,1.7-.956l7.285-.559a2.323,2.323,0,0,0,2.128-1.818l1.778-7.7a2.31,2.31,0,0,0-.088-1.347L38.4,159.155a2.33,2.33,0,0,1,0-1.717Z" transform="translate(-4.502 -46.215)" fill="#551c81"/>
    <path id="Path_368" data-name="Path 368" d="M23.058,164.3c-.189.417.249.828.633,1.071l.795.512a.673.673,0,0,1,.269.256c.141.316-.269.6-.411.916a.875.875,0,0,0,.148.862,2.693,2.693,0,0,0,.707.586l.936.606a.983.983,0,0,0,.478.189.936.936,0,0,0,.6-.357c.438-.465.875-.929,1.306-1.407a1.7,1.7,0,0,0-.1-2.693,12.846,12.846,0,0,0-.889-1.111C26.371,162.5,23.866,162.507,23.058,164.3Z" transform="translate(-7.518 -53.203)" fill="#551c81"/>
    <path id="Path_369" data-name="Path 369" d="M1.452,180.454a5.542,5.542,0,0,0,.673,1.5l2.02,3.434a2.242,2.242,0,0,0,1.205,1.178c.855.215,1.65-.673,1.7-1.576a6.06,6.06,0,0,0-.673-2.525,1.394,1.394,0,0,1-.108-1.118A2.215,2.215,0,0,1,7,180.676c1.145-.875,1.219-2.545,1.158-3.986a1.111,1.111,0,0,0-.094-.471c-.72-1.347-3.555-2.02-4.713-1.111A7.01,7.01,0,0,0,1.452,180.454Z" transform="translate(-0.455 -57.064)" fill="#551c81"/>
    <path id="Path_370" data-name="Path 370" d="M34.338,152.074c-.121.364.215.714.552.9a.384.384,0,0,0,.168.054.4.4,0,0,0,.215-.1c.72-.532,2.384-1.239,2.02-2.249a1.549,1.549,0,0,0-1.528-.9c-.458,0-1.057.175-1.1.714,0,.357.431.579.384.862S34.439,151.764,34.338,152.074Z" transform="translate(-11.209 -48.924)" fill="#551c81"/>
  </g>
</svg>
