<svg id="Layer_2" data-name="Layer 2" xmlns="http://www.w3.org/2000/svg" xmlns:xlink="http://www.w3.org/1999/xlink" width="164.402" height="139.016" viewBox="0 0 164.402 139.016">
  <defs>
    <linearGradient id="linear-gradient" x1="-0.196" y1="1.191" x2="1.021" y2="-0.067" gradientUnits="objectBoundingBox">
      <stop offset="0.3" stop-color="#fc3467"/>
      <stop offset="0.32" stop-color="#fc3966"/>
      <stop offset="0.48" stop-color="#fd695a"/>
      <stop offset="0.63" stop-color="#fe8e50"/>
      <stop offset="0.78" stop-color="#ffa94a"/>
      <stop offset="0.9" stop-color="#ffb945"/>
      <stop offset="1" stop-color="#ffbf44"/>
    </linearGradient>
    <radialGradient id="radial-gradient" cx="0.499" cy="0.501" r="0.5" gradientTransform="translate(0)" gradientUnits="objectBoundingBox">
      <stop offset="0" stop-color="#fc3467"/>
      <stop offset="0.1" stop-color="#f63365"/>
      <stop offset="0.23" stop-color="#e63061"/>
      <stop offset="0.38" stop-color="#cb2b5a"/>
      <stop offset="0.54" stop-color="#a62450"/>
      <stop offset="0.71" stop-color="#751c44"/>
      <stop offset="0.89" stop-color="#3b1134"/>
      <stop offset="1" stop-color="#140a2a"/>
    </radialGradient>
    <linearGradient id="linear-gradient-2" x1="-0.267" y1="1.148" x2="0.978" y2="-0.106" xlink:href="#linear-gradient"/>
  </defs>
  <g id="Ñëîé_1" data-name="Ñëîé 1" transform="translate(0 0)">
    <g id="Group_29" data-name="Group 29" transform="translate(15.672)">
      <g id="Group_28" data-name="Group 28">
        <g id="Group_27" data-name="Group 27">
          <g id="Group_26" data-name="Group 26">
            <path id="Path_338" data-name="Path 338" d="M171.934.229C167.465-5,53.3,80.134,27.438,102.176q-2.083,1.786-4.1,3.566L40.7,123.551c.971-.809,1.935-1.618,2.912-2.447C69.46,99.089,176.4,5.453,171.934.229Z" transform="translate(-23.34 0.002)" fill="url(#linear-gradient)"/>
          </g>
        </g>
      </g>
    </g>
    <g id="Group_30" data-name="Group 30" transform="translate(0 93.651)" opacity="0.36" style="mix-blend-mode: lighten;isolation: isolate">
      <path id="Path_339" data-name="Path 339" d="M22.739,138.93a22.676,22.676,0,1,0,16.068,6.635A22.683,22.683,0,0,0,22.739,138.93Z" transform="translate(-0.09 -138.93)" fill="url(#radial-gradient)"/>
    </g>
    <g id="Group_34" data-name="Group 34" transform="translate(12.058 69.964)">
      <g id="Group_33" data-name="Group 33">
        <g id="Group_32" data-name="Group 32">
          <g id="Group_31" data-name="Group 31">
            <path id="Path_340" data-name="Path 340" d="M18.127,147.875s3.37-18.335,27.988-30.259c0,0-11.513,11.217-15.234,21.078,0,0,14.2-19.852,37.647-28.884,0,0-24.489,17.715-27.192,25.413l7.536-4.011s-1.766,6.175-5.811,9.174c0,0,37.573-29.471,41.665-36.6,0,0-17.27,32.6-37,43.815,0,0,14.493-5.042,19.393-11.763,0,0-14.034,19.71-32.275,24.112a18.29,18.29,0,0,1-8.763.29C21.875,159.1,17.062,155.836,18.127,147.875Z" transform="translate(-17.978 -103.79)" fill="url(#linear-gradient-2)"/>
          </g>
        </g>
      </g>
    </g>
    <path id="Path_341" data-name="Path 341" d="M35.849,171.85c-1.631-.539,2.7-3.249,1.625-3.8-3.8-1.625-7.6,7.051-10.307,4.341s4.341-6.5,6.512-10.3a2.6,2.6,0,0,0-1.085-3.242c-5.393-1.631-8.682,3.788-13.023,5.393-.539-2.171,3.256-3.8,1.085-4.88a1.921,1.921,0,0,0-1.038-.431A12.74,12.74,0,1,0,41.471,169.72C39.294,169.706,37.089,172.679,35.849,171.85Z" transform="translate(-5.327 -51.674)" fill="#fc3467"/>
    <path id="Path_342" data-name="Path 342" d="M30.47,153.22a12.713,12.713,0,0,0-9.269,4,1.921,1.921,0,0,1,1.038.431c2.171,1.085-1.625,2.7-1.085,4.88,4.341-1.631,7.6-7.051,13.023-5.393a2.6,2.6,0,0,1,1.085,3.249c-2.171,3.8-9.221,7.59-6.512,10.3s6.512-5.966,10.307-4.341c1.085.546-3.256,3.256-1.625,3.8,1.24.829,3.445-2.144,5.622-2.13a12.531,12.531,0,0,0,.162-2.022A12.747,12.747,0,0,0,30.47,153.22Z" transform="translate(-6.938 -49.937)" fill="#ffbf44"/>
    <path id="Path_343" data-name="Path 343" d="M56.471,149.132a.8.8,0,1,1-.231-.567A.8.8,0,0,1,56.471,149.132Z" transform="translate(-17.947 -48.343)" fill="#ffbf44"/>
    <ellipse id="Ellipse_45" data-name="Ellipse 45" cx="1.672" cy="1.672" rx="1.672" ry="1.672" transform="translate(34.904 104.578)" fill="#ffbf44"/>
    <ellipse id="Ellipse_46" data-name="Ellipse 46" cx="1.995" cy="1.995" rx="1.995" ry="1.995" transform="translate(32.504 109.404)" fill="#ffbf44"/>
  </g>
</svg>
