<svg xmlns="http://www.w3.org/2000/svg" width="38.888" height="38.888" viewBox="0 0 38.888 38.888">
  <path id="iconmonstr-twitter-4" d="M19.444,0A19.444,19.444,0,1,0,38.888,19.444,19.445,19.445,0,0,0,19.444,0Zm9.829,15.628A13.234,13.234,0,0,1,8.912,27.38a9.363,9.363,0,0,0,6.89-1.927,4.665,4.665,0,0,1-4.349-3.233,4.668,4.668,0,0,0,2.1-.079,4.661,4.661,0,0,1-3.733-4.623,4.643,4.643,0,0,0,2.108.582,4.661,4.661,0,0,1-1.44-6.214,13.21,13.21,0,0,0,9.592,4.863A4.658,4.658,0,0,1,28.014,12.5a9.283,9.283,0,0,0,2.955-1.129,4.673,4.673,0,0,1-2.046,2.575,9.284,9.284,0,0,0,2.672-.734A9.342,9.342,0,0,1,29.273,15.628Z" fill="#dddbff"/>
</svg>
